{"asset":{"version":"2.0","generator":"Cursor procedural luxury dice"},"scene":0,"scenes":[{"nodes":[0,1,2,3,4,5,6,7,8,9,10,11,12,13,14,15,16,17,18,19,20,21,22,23]}],"nodes":[{"name":"Dice_Eagle_body","mesh":0},{"name":"pip_1","mesh":1,"translation":[0,0,1.035],"rotation":[0.7071067811865475,0.0,0.0,0.7071067811865476]},{"name":"pip_6","mesh":1,"translation":[0.38,-0.48,-1.035],"rotation":[0.7071067811865475,0.0,0.0,0.7071067811865476]},{"name":"pip_6","mesh":1,"translation":[0.38,0,-1.035],"rotation":[0.7071067811865475,0.0,0.0,0.7071067811865476]},{"name":"pip_6","mesh":1,"translation":[0.38,0.48,-1.035],"rotation":[0.7071067811865475,0.0,0.0,0.7071067811865476]},{"name":"pip_6","mesh":1,"translation":[-0.38,-0.48,-1.035],"rotation":[0.7071067811865475,0.0,0.0,0.7071067811865476]},{"name":"pip_6","mesh":1,"translation":[-0.38,0,-1.035],"rotation":[0.7071067811865475,0.0,0.0,0.7071067811865476]},{"name":"pip_6","mesh":1,"translation":[-0.38,0.48,-1.035],"rotation":[0.7071067811865475,0.0,0.0,0.7071067811865476]},{"name":"pip_2","mesh":1,"translation":[-0.38,1.035,0.38],"rotation":[0.0,0.0,0.0,1.0]},{"name":"pip_2","mesh":1,"translation":[0.38,1.035,-0.38],"rotation":[0.0,0.0,0.0,1.0]},{"name":"pip_5","mesh":1,"translation":[-0.38,-1.035,-0.38],"rotation":[1.0,0.0,0.0,6.123233995736766e-17]},{"name":"pip_5","mesh":1,"translation":[-0.38,-1.035,0.38],"rotation":[1.0,0.0,0.0,6.123233995736766e-17]},{"name":"pip_5","mesh":1,"translation":[0,-1.035,0],"rotation":[1.0,0.0,0.0,6.123233995736766e-17]},{"name":"pip_5","mesh":1,"translation":[0.38,-1.035,-0.38],"rotation":[1.0,0.0,0.0,6.123233995736766e-17]},{"name":"pip_5","mesh":1,"translation":[0.38,-1.035,0.38],"rotation":[1.0,0.0,0.0,6.123233995736766e-17]},{"name":"pip_3","mesh":1,"translation":[1.035,-0.38,0.38],"rotation":[0.0,0.0,0.7071067811865475,0.7071067811865476]},{"name":"pip_3","mesh":1,"translation":[1.035,0,0],"rotation":[0.0,0.0,0.7071067811865475,0.7071067811865476]},{"name":"pip_3","mesh":1,"translation":[1.035,0.38,-0.38],"rotation":[0.0,0.0,0.7071067811865475,0.7071067811865476]},{"name":"pip_4","mesh":1,"translation":[-1.035,-0.38,-0.38],"rotation":[0.0,0.0,0.7071067811865475,0.7071067811865476]},{"name":"pip_4","mesh":1,"translation":[-1.035,0.38,-0.38],"rotation":[0.0,0.0,0.7071067811865475,0.7071067811865476]},{"name":"pip_4","mesh":1,"translation":[-1.035,-0.38,0.38],"rotation":[0.0,0.0,0.7071067811865475,0.7071067811865476]},{"name":"pip_4","mesh":1,"translation":[-1.035,0.38,0.38],"rotation":[0.0,0.0,0.7071067811865475,0.7071067811865476]},{"name":"eagle_left_wing","mesh":2,"translation":[-1.23,0.25,0.18],"scale":[0.7,0.08,0.22],"rotation":[-0.016717294405218134,0.07304103709387018,0.2224791695674694,0.9720537835308243]},{"name":"eagle_right_wing","mesh":2,"translation":[1.23,0.25,0.18],"scale":[0.7,0.08,0.22],"rotation":[-0.016717294405218134,-0.07304103709387018,-0.2224791695674694,0.9720537835308243]}],"meshes":[{"name":"luxury_d6_body","primitives":[{"attributes":{"POSITION":0,"NORMAL":1},"indices":2,"material":0}]},{"name":"engraved_glow_pip","primitives":[{"attributes":{"POSITION":3,"NORMAL":4},"indices":5,"material":1}]},{"name":"premium_deco_block","primitives":[{"attributes":{"POSITION":6,"NORMAL":7},"indices":8,"material":2}]}],"materials":[{"pbrMetallicRoughness":{"baseColorFactor":[0.18,0.22,0.42,1],"metallicFactor":0.75,"roughnessFactor":0.18},"emissiveFactor":[0.35,0.75,1.0]},{"pbrMetallicRoughness":{"baseColorFactor":[0.8,0.95,1.0,1],"metallicFactor":0.15,"roughnessFactor":0.18},"emissiveFactor":[0.8,0.95,1.0]},{"pbrMetallicRoughness":{"baseColorFactor":[0.35,0.75,1.0,1],"metallicFactor":0.45,"roughnessFactor":0.2},"emissiveFactor":[0.35,0.75,1.0]}],"buffers":[{"uri":"Dice_Eagle.bin","byteLength":4704}],"bufferViews":[{"buffer":0,"byteOffset":0,"byteLength":288,"target":34962},{"buffer":0,"byteOffset":288,"byteLength":288,"target":34962},{"buffer":0,"byteOffset":576,"byteLength":72,"target":34963},{"buffer":0,"byteOffset":648,"byteLength":1368,"target":34962},{"buffer":0,"byteOffset":2016,"byteLength":1368,"target":34962},{"buffer":0,"byteOffset":3384,"byteLength":672,"target":34963},{"buffer":0,"byteOffset":4056,"byteLength":288,"target":34962},{"buffer":0,"byteOffset":4344,"byteLength":288,"target":34962},{"buffer":0,"byteOffset":4632,"byteLength":72,"target":34963}],"accessors":[{"bufferView":0,"componentType":5126,"count":24,"type":"VEC3","min":[-1.0,-1.0,-1.0],"max":[1.0,1.0,1.0]},{"bufferView":1,"componentType":5126,"count":24,"type":"VEC3"},{"bufferView":2,"componentType":5123,"count":36,"type":"SCALAR"},{"bufferView":3,"componentType":5126,"count":114,"type":"VEC3","min":[-0.105,-0.105,-0.0225],"max":[0.105,0.105,0.0225]},{"bufferView":4,"componentType":5126,"count":114,"type":"VEC3"},{"bufferView":5,"componentType":5123,"count":336,"type":"SCALAR"},{"bufferView":6,"componentType":5126,"count":24,"type":"VEC3","min":[-0.5,-0.5,-0.5],"max":[0.5,0.5,0.5]},{"bufferView":7,"componentType":5126,"count":24,"type":"VEC3"},{"bufferView":8,"componentType":5123,"count":36,"type":"SCALAR"}]}