{"asset":{"version":"2.0","generator":"Cursor procedural luxury dice"},"scene":0,"scenes":[{"nodes":[0,1,2,3,4,5,6,7,8,9,10,11,12,13,14,15,16,17,18,19,20,21,22,23,24,25,26,27,28,29,30,31]}],"nodes":[{"name":"Dice_Snake_body","mesh":0},{"name":"pip_1","mesh":1,"translation":[0,0,1.035],"rotation":[0.7071067811865475,0.0,0.0,0.7071067811865476]},{"name":"pip_6","mesh":1,"translation":[0.38,-0.48,-1.035],"rotation":[0.7071067811865475,0.0,0.0,0.7071067811865476]},{"name":"pip_6","mesh":1,"translation":[0.38,0,-1.035],"rotation":[0.7071067811865475,0.0,0.0,0.7071067811865476]},{"name":"pip_6","mesh":1,"translation":[0.38,0.48,-1.035],"rotation":[0.7071067811865475,0.0,0.0,0.7071067811865476]},{"name":"pip_6","mesh":1,"translation":[-0.38,-0.48,-1.035],"rotation":[0.7071067811865475,0.0,0.0,0.7071067811865476]},{"name":"pip_6","mesh":1,"translation":[-0.38,0,-1.035],"rotation":[0.7071067811865475,0.0,0.0,0.7071067811865476]},{"name":"pip_6","mesh":1,"translation":[-0.38,0.48,-1.035],"rotation":[0.7071067811865475,0.0,0.0,0.7071067811865476]},{"name":"pip_2","mesh":1,"translation":[-0.38,1.035,0.38],"rotation":[0.0,0.0,0.0,1.0]},{"name":"pip_2","mesh":1,"translation":[0.38,1.035,-0.38],"rotation":[0.0,0.0,0.0,1.0]},{"name":"pip_5","mesh":1,"translation":[-0.38,-1.035,-0.38],"rotation":[1.0,0.0,0.0,6.123233995736766e-17]},{"name":"pip_5","mesh":1,"translation":[-0.38,-1.035,0.38],"rotation":[1.0,0.0,0.0,6.123233995736766e-17]},{"name":"pip_5","mesh":1,"translation":[0,-1.035,0],"rotation":[1.0,0.0,0.0,6.123233995736766e-17]},{"name":"pip_5","mesh":1,"translation":[0.38,-1.035,-0.38],"rotation":[1.0,0.0,0.0,6.123233995736766e-17]},{"name":"pip_5","mesh":1,"translation":[0.38,-1.035,0.38],"rotation":[1.0,0.0,0.0,6.123233995736766e-17]},{"name":"pip_3","mesh":1,"translation":[1.035,-0.38,0.38],"rotation":[0.0,0.0,0.7071067811865475,0.7071067811865476]},{"name":"pip_3","mesh":1,"translation":[1.035,0,0],"rotation":[0.0,0.0,0.7071067811865475,0.7071067811865476]},{"name":"pip_3","mesh":1,"translation":[1.035,0.38,-0.38],"rotation":[0.0,0.0,0.7071067811865475,0.7071067811865476]},{"name":"pip_4","mesh":1,"translation":[-1.035,-0.38,-0.38],"rotation":[0.0,0.0,0.7071067811865475,0.7071067811865476]},{"name":"pip_4","mesh":1,"translation":[-1.035,0.38,-0.38],"rotation":[0.0,0.0,0.7071067811865475,0.7071067811865476]},{"name":"pip_4","mesh":1,"translation":[-1.035,-0.38,0.38],"rotation":[0.0,0.0,0.7071067811865475,0.7071067811865476]},{"name":"pip_4","mesh":1,"translation":[-1.035,0.38,0.38],"rotation":[0.0,0.0,0.7071067811865475,0.7071067811865476]},{"name":"snake_coil","mesh":2,"translation":[0.95,0.0,0.0],"scale":[0.22,0.08,0.08],"rotation":[0.09983341664682815,0.0,0.0,0.9950041652780258]},{"name":"snake_coil","mesh":2,"translation":[0.765363324672396,0.10163564521110637,0.5014419021645643],"scale":[0.22,0.08,0.08],"rotation":[0.09566476007333043,0.284523655049831,-0.028547587629978638,0.9534566474872918]},{"name":"snake_coil","mesh":2,"translation":[0.3514187858775204,0.1677670354741007,0.8067867357191547],"scale":[0.22,0.08,0.08],"rotation":[0.08350692423849282,0.5452860997799758,-0.05471110201417813,0.8322838207651061]},{"name":"snake_coil","mesh":2,"translation":[-0.1422958435169699,0.17529257355807515,0.8329327061160426],"scale":[0.22,0.08,0.08],"rotation":[0.06437523735554666,0.7605104759829033,-0.07630556922529452,0.641605100385649]},{"name":"snake_coil","mesh":2,"translation":[-0.5516552632107935,0.12158337249920717,0.5931074696645036],"scale":[0.22,0.08,0.08],"rotation":[0.03986742962276476,0.912222911967751,-0.09152758674111912,0.3973444951194085]},{"name":"snake_coil","mesh":2,"translation":[-0.7524925779909326,0.025401601450776096,0.18541823014083636],"scale":[0.22,0.08,0.08],"rotation":[0.012030203181348953,0.987753561008008,-0.09910592964497456,0.11990075744806708]},{"name":"snake_coil","mesh":2,"translation":[-0.6980306032958722,-0.07965367979307338,-0.24566903928334294],"scale":[0.22,0.08,0.08],"rotation":[-0.01681169258336274,0.980794688735811,-0.09840771347745912,-0.16755616213152097]},{"name":"snake_coil","mesh":2,"translation":[-0.42799598640496334,-0.15688363903444588,-0.5602182035789647],"scale":[0.22,0.08,0.08],"rotation":[-0.04424960609136813,0.891927446224938,-0.08949124784099248,-0.44102008978195223]},{"name":"snake_coil","mesh":2,"translation":[-0.0484582694196805,-0.17930962959045132,-0.6682453113377225],"scale":[0.22,0.08,0.08],"rotation":[-0.06799213547844296,0.7285733367576438,-0.07310116683378072,-0.6776534378917102]},{"name":"snake_coil","mesh":2,"translation":[0.30866771279284194,-0.1390976077600778,-0.5549317463249291],"scale":[0.22,0.08,0.08],"rotation":[-0.08605648871912695,0.5043744293947859,-0.05060624298161208,-0.8576944233777581]}],"meshes":[{"name":"luxury_d6_body","primitives":[{"attributes":{"POSITION":0,"NORMAL":1},"indices":2,"material":0}]},{"name":"engraved_glow_pip","primitives":[{"attributes":{"POSITION":3,"NORMAL":4},"indices":5,"material":1}]},{"name":"premium_deco_block","primitives":[{"attributes":{"POSITION":6,"NORMAL":7},"indices":8,"material":2}]}],"materials":[{"pbrMetallicRoughness":{"baseColorFactor":[0.05,0.36,0.13,1],"metallicFactor":0.75,"roughnessFactor":0.18},"emissiveFactor":[0.1,1.0,0.35]},{"pbrMetallicRoughness":{"baseColorFactor":[1.0,0.92,0.45,1],"metallicFactor":0.15,"roughnessFactor":0.18},"emissiveFactor":[1.0,0.92,0.45]},{"pbrMetallicRoughness":{"baseColorFactor":[0.1,1.0,0.35,1],"metallicFactor":0.45,"roughnessFactor":0.2},"emissiveFactor":[0.1,1.0,0.35]}],"buffers":[{"uri":"Dice_Snake.bin","byteLength":4704}],"bufferViews":[{"buffer":0,"byteOffset":0,"byteLength":288,"target":34962},{"buffer":0,"byteOffset":288,"byteLength":288,"target":34962},{"buffer":0,"byteOffset":576,"byteLength":72,"target":34963},{"buffer":0,"byteOffset":648,"byteLength":1368,"target":34962},{"buffer":0,"byteOffset":2016,"byteLength":1368,"target":34962},{"buffer":0,"byteOffset":3384,"byteLength":672,"target":34963},{"buffer":0,"byteOffset":4056,"byteLength":288,"target":34962},{"buffer":0,"byteOffset":4344,"byteLength":288,"target":34962},{"buffer":0,"byteOffset":4632,"byteLength":72,"target":34963}],"accessors":[{"bufferView":0,"componentType":5126,"count":24,"type":"VEC3","min":[-1.0,-1.0,-1.0],"max":[1.0,1.0,1.0]},{"bufferView":1,"componentType":5126,"count":24,"type":"VEC3"},{"bufferView":2,"componentType":5123,"count":36,"type":"SCALAR"},{"bufferView":3,"componentType":5126,"count":114,"type":"VEC3","min":[-0.105,-0.105,-0.0225],"max":[0.105,0.105,0.0225]},{"bufferView":4,"componentType":5126,"count":114,"type":"VEC3"},{"bufferView":5,"componentType":5123,"count":336,"type":"SCALAR"},{"bufferView":6,"componentType":5126,"count":24,"type":"VEC3","min":[-0.5,-0.5,-0.5],"max":[0.5,0.5,0.5]},{"bufferView":7,"componentType":5126,"count":24,"type":"VEC3"},{"bufferView":8,"componentType":5123,"count":36,"type":"SCALAR"}]}