{"asset":{"version":"2.0","generator":"Cursor procedural luxury dice"},"scene":0,"scenes":[{"nodes":[0,1,2,3,4,5,6,7,8,9,10,11,12,13,14,15,16,17,18,19,20,21,22,23,24,25,26,27,28,29,30,31,32,33]}],"nodes":[{"name":"Dice_Gold_body","mesh":0},{"name":"pip_1","mesh":1,"translation":[0,0,1.035],"rotation":[0.7071067811865475,0.0,0.0,0.7071067811865476]},{"name":"pip_6","mesh":1,"translation":[0.38,-0.48,-1.035],"rotation":[0.7071067811865475,0.0,0.0,0.7071067811865476]},{"name":"pip_6","mesh":1,"translation":[0.38,0,-1.035],"rotation":[0.7071067811865475,0.0,0.0,0.7071067811865476]},{"name":"pip_6","mesh":1,"translation":[0.38,0.48,-1.035],"rotation":[0.7071067811865475,0.0,0.0,0.7071067811865476]},{"name":"pip_6","mesh":1,"translation":[-0.38,-0.48,-1.035],"rotation":[0.7071067811865475,0.0,0.0,0.7071067811865476]},{"name":"pip_6","mesh":1,"translation":[-0.38,0,-1.035],"rotation":[0.7071067811865475,0.0,0.0,0.7071067811865476]},{"name":"pip_6","mesh":1,"translation":[-0.38,0.48,-1.035],"rotation":[0.7071067811865475,0.0,0.0,0.7071067811865476]},{"name":"pip_2","mesh":1,"translation":[-0.38,1.035,0.38],"rotation":[0.0,0.0,0.0,1.0]},{"name":"pip_2","mesh":1,"translation":[0.38,1.035,-0.38],"rotation":[0.0,0.0,0.0,1.0]},{"name":"pip_5","mesh":1,"translation":[-0.38,-1.035,-0.38],"rotation":[1.0,0.0,0.0,6.123233995736766e-17]},{"name":"pip_5","mesh":1,"translation":[-0.38,-1.035,0.38],"rotation":[1.0,0.0,0.0,6.123233995736766e-17]},{"name":"pip_5","mesh":1,"translation":[0,-1.035,0],"rotation":[1.0,0.0,0.0,6.123233995736766e-17]},{"name":"pip_5","mesh":1,"translation":[0.38,-1.035,-0.38],"rotation":[1.0,0.0,0.0,6.123233995736766e-17]},{"name":"pip_5","mesh":1,"translation":[0.38,-1.035,0.38],"rotation":[1.0,0.0,0.0,6.123233995736766e-17]},{"name":"pip_3","mesh":1,"translation":[1.035,-0.38,0.38],"rotation":[0.0,0.0,0.7071067811865475,0.7071067811865476]},{"name":"pip_3","mesh":1,"translation":[1.035,0,0],"rotation":[0.0,0.0,0.7071067811865475,0.7071067811865476]},{"name":"pip_3","mesh":1,"translation":[1.035,0.38,-0.38],"rotation":[0.0,0.0,0.7071067811865475,0.7071067811865476]},{"name":"pip_4","mesh":1,"translation":[-1.035,-0.38,-0.38],"rotation":[0.0,0.0,0.7071067811865475,0.7071067811865476]},{"name":"pip_4","mesh":1,"translation":[-1.035,0.38,-0.38],"rotation":[0.0,0.0,0.7071067811865475,0.7071067811865476]},{"name":"pip_4","mesh":1,"translation":[-1.035,-0.38,0.38],"rotation":[0.0,0.0,0.7071067811865475,0.7071067811865476]},{"name":"pip_4","mesh":1,"translation":[-1.035,0.38,0.38],"rotation":[0.0,0.0,0.7071067811865475,0.7071067811865476]},{"name":"lion_mane_rune","mesh":2,"translation":[1.18,0.0,1.08],"scale":[0.11,0.32,0.045],"rotation":[0.0,0.0,0.0,1.0]},{"name":"lion_mane_rune","mesh":2,"translation":[1.0219099764656376,0.5899999999999999,1.08],"scale":[0.11,0.32,0.045],"rotation":[0.0,0.0,0.25881904510252074,0.9659258262890683]},{"name":"lion_mane_rune","mesh":2,"translation":[0.5900000000000001,1.0219099764656374,1.08],"scale":[0.11,0.32,0.045],"rotation":[0.0,0.0,0.49999999999999994,0.8660254037844387]},{"name":"lion_mane_rune","mesh":2,"translation":[7.225416114969384e-17,1.18,1.08],"scale":[0.11,0.32,0.045],"rotation":[0.0,0.0,0.7071067811865475,0.7071067811865476]},{"name":"lion_mane_rune","mesh":2,"translation":[-0.5899999999999997,1.0219099764656376,1.08],"scale":[0.11,0.32,0.045],"rotation":[0.0,0.0,0.8660254037844386,0.5000000000000001]},{"name":"lion_mane_rune","mesh":2,"translation":[-1.0219099764656376,0.5899999999999999,1.08],"scale":[0.11,0.32,0.045],"rotation":[0.0,0.0,0.9659258262890683,0.25881904510252074]},{"name":"lion_mane_rune","mesh":2,"translation":[-1.18,1.4450832229938768e-16,1.08],"scale":[0.11,0.32,0.045],"rotation":[0.0,0.0,1.0,6.123233995736766e-17]},{"name":"lion_mane_rune","mesh":2,"translation":[-1.0219099764656379,-0.5899999999999996,1.08],"scale":[0.11,0.32,0.045],"rotation":[-0.0,0.0,0.9659258262890683,-0.25881904510252063]},{"name":"lion_mane_rune","mesh":2,"translation":[-0.5900000000000005,-1.0219099764656372,1.08],"scale":[0.11,0.32,0.045],"rotation":[-0.0,0.0,0.8660254037844387,-0.4999999999999998]},{"name":"lion_mane_rune","mesh":2,"translation":[-2.1676248344908148e-16,-1.18,1.08],"scale":[0.11,0.32,0.045],"rotation":[-0.0,0.0,0.7071067811865476,-0.7071067811865475]},{"name":"lion_mane_rune","mesh":2,"translation":[0.5900000000000001,-1.0219099764656374,1.08],"scale":[0.11,0.32,0.045],"rotation":[-0.0,0.0,0.49999999999999994,-0.8660254037844387]},{"name":"lion_mane_rune","mesh":2,"translation":[1.0219099764656372,-0.5900000000000005,1.08],"scale":[0.11,0.32,0.045],"rotation":[-0.0,0.0,0.258819045102521,-0.9659258262890682]}],"meshes":[{"name":"luxury_d6_body","primitives":[{"attributes":{"POSITION":0,"NORMAL":1},"indices":2,"material":0}]},{"name":"engraved_glow_pip","primitives":[{"attributes":{"POSITION":3,"NORMAL":4},"indices":5,"material":1}]},{"name":"premium_deco_block","primitives":[{"attributes":{"POSITION":6,"NORMAL":7},"indices":8,"material":2}]}],"materials":[{"pbrMetallicRoughness":{"baseColorFactor":[0.98,0.74,0.22,1],"metallicFactor":0.75,"roughnessFactor":0.18},"emissiveFactor":[1.0,0.72,0.16]},{"pbrMetallicRoughness":{"baseColorFactor":[1.0,0.95,0.68,1],"metallicFactor":0.15,"roughnessFactor":0.18},"emissiveFactor":[1.0,0.95,0.68]},{"pbrMetallicRoughness":{"baseColorFactor":[1.0,0.72,0.16,1],"metallicFactor":0.45,"roughnessFactor":0.2},"emissiveFactor":[1.0,0.72,0.16]}],"buffers":[{"uri":"Dice_Gold.bin","byteLength":4704}],"bufferViews":[{"buffer":0,"byteOffset":0,"byteLength":288,"target":34962},{"buffer":0,"byteOffset":288,"byteLength":288,"target":34962},{"buffer":0,"byteOffset":576,"byteLength":72,"target":34963},{"buffer":0,"byteOffset":648,"byteLength":1368,"target":34962},{"buffer":0,"byteOffset":2016,"byteLength":1368,"target":34962},{"buffer":0,"byteOffset":3384,"byteLength":672,"target":34963},{"buffer":0,"byteOffset":4056,"byteLength":288,"target":34962},{"buffer":0,"byteOffset":4344,"byteLength":288,"target":34962},{"buffer":0,"byteOffset":4632,"byteLength":72,"target":34963}],"accessors":[{"bufferView":0,"componentType":5126,"count":24,"type":"VEC3","min":[-1.0,-1.0,-1.0],"max":[1.0,1.0,1.0]},{"bufferView":1,"componentType":5126,"count":24,"type":"VEC3"},{"bufferView":2,"componentType":5123,"count":36,"type":"SCALAR"},{"bufferView":3,"componentType":5126,"count":114,"type":"VEC3","min":[-0.105,-0.105,-0.0225],"max":[0.105,0.105,0.0225]},{"bufferView":4,"componentType":5126,"count":114,"type":"VEC3"},{"bufferView":5,"componentType":5123,"count":336,"type":"SCALAR"},{"bufferView":6,"componentType":5126,"count":24,"type":"VEC3","min":[-0.5,-0.5,-0.5],"max":[0.5,0.5,0.5]},{"bufferView":7,"componentType":5126,"count":24,"type":"VEC3"},{"bufferView":8,"componentType":5123,"count":36,"type":"SCALAR"}]}